<?xml version="1.0" standalone="no"?>
<!DOCTYPE svg PUBLIC "-//W3C//DTD SVG 20010904//EN"
 "http://www.w3.org/TR/2001/REC-SVG-20010904/DTD/svg10.dtd">
<svg version="1.0" xmlns="http://www.w3.org/2000/svg"
 width="694.000000pt" height="287.000000pt" viewBox="0 0 694.000000 287.000000"
 preserveAspectRatio="xMidYMid meet">

<g transform="translate(0.000000,287.000000) scale(0.100000,-0.100000)"
fill="#000000" stroke="none">
<path d="M3365 2791 c-238 -30 -493 -170 -650 -358 -83 -100 -84 -100 -120
-158 -147 -230 -225 -508 -225 -810 0 -261 48 -472 161 -700 69 -139 133 -230
239 -336 146 -146 299 -234 495 -285 107 -28 313 -25 430 5 520 134 885 674
885 1311 0 634 -362 1174 -875 1305 -101 26 -250 37 -340 26z m225 -52 c158
-25 312 -93 440 -194 59 -46 176 -176 225 -250 160 -242 227 -473 227 -785 0
-357 -98 -647 -301 -892 -219 -264 -532 -393 -834 -344 -432 71 -758 440 -863
976 -23 118 -23 403 0 521 56 289 171 515 355 700 206 207 493 310 751 268z"/>
<path d="M3793 2455 c-44 -31 -64 -77 -133 -314 -77 -265 -110 -351 -205 -543
-76 -152 -116 -216 -204 -325 -57 -71 -70 -82 -97 -83 -49 0 -213 -36 -278
-61 -68 -25 -160 -107 -171 -151 -19 -74 30 -114 130 -106 87 7 128 31 313
182 l72 59 158 -6 c162 -6 234 -19 312 -55 56 -26 165 -103 249 -176 78 -68
121 -85 156 -62 31 21 50 87 34 118 -67 132 -361 248 -665 264 -67 4 -128 10
-134 14 -7 4 18 46 71 116 151 201 210 296 329 534 167 332 228 490 215 551
-11 49 -105 77 -152 44z m-693 -1344 c0 -14 -78 -88 -126 -119 -23 -16 -73
-39 -112 -52 -69 -24 -71 -24 -91 -6 -12 11 -21 23 -21 27 0 19 57 72 102 95
85 43 248 79 248 55z"/>
<path d="M3943 2153 c-31 -92 -122 -313 -155 -377 -43 -85 -128 -213 -235
-355 -69 -92 -82 -140 -44 -161 11 -5 85 -15 165 -20 169 -12 266 -35 365 -84
87 -44 158 -49 191 -14 11 12 20 27 20 34 0 30 -48 66 -118 89 -139 47 -194
55 -373 55 -93 0 -169 3 -169 6 0 3 13 23 29 43 106 135 244 391 294 546 59
185 67 213 67 234 0 26 -28 28 -37 4z"/>
<path d="M918 2200 c-88 -14 -197 -64 -247 -112 -78 -75 -99 -154 -62 -227 37
-72 79 -99 321 -208 73 -33 133 -81 156 -124 21 -41 18 -115 -8 -168 -47 -97
-177 -196 -304 -230 -71 -19 -198 -28 -276 -20 -137 15 -237 79 -274 175 -41
108 13 296 111 382 49 43 58 72 23 72 -57 0 -153 -93 -206 -200 -34 -68 -37
-81 -37 -160 0 -76 3 -91 30 -139 92 -166 331 -238 605 -181 256 52 481 251
480 424 -1 107 -72 178 -280 278 -80 38 -160 81 -179 95 -68 52 -74 129 -13
185 87 82 309 125 401 78 77 -39 104 -108 59 -150 -12 -11 -32 -20 -44 -20
-12 0 -27 -7 -34 -16 -11 -12 -11 -18 2 -31 33 -32 137 28 165 94 28 69 -13
146 -98 182 -60 26 -197 36 -291 21z"/>
<path d="M6109 1961 c-47 -4 -74 -12 -89 -26 -35 -30 -81 -106 -184 -302 -139
-265 -187 -349 -224 -388 -89 -94 -70 15 39 223 32 63 59 118 59 123 0 15 -53
10 -97 -11 -23 -10 -69 -37 -102 -60 -34 -22 -61 -38 -61 -34 0 4 5 22 12 40
10 29 9 36 -7 54 -33 37 -67 26 -158 -52 -32 -28 -60 -48 -63 -46 -2 3 11 25
29 49 19 24 32 49 30 56 -7 20 -70 27 -96 10 -12 -8 -58 -80 -102 -161 -84
-155 -127 -216 -151 -216 -12 0 -13 8 -8 38 9 52 78 195 115 237 l31 35 -24 0
c-19 0 -24 5 -23 27 0 41 -53 73 -122 73 -134 0 -269 -139 -304 -313 -21 -103
31 -182 107 -163 14 4 48 27 75 53 43 41 49 43 49 24 0 -13 14 -36 30 -53 25
-24 36 -29 60 -25 24 5 28 3 23 -10 -5 -13 -3 -14 15 -4 11 6 33 11 47 11 43
0 61 16 100 87 20 37 57 92 81 123 42 54 101 106 110 98 2 -2 -13 -42 -33 -88
-47 -108 -54 -169 -24 -199 27 -27 42 -23 54 15 25 76 190 284 227 284 14 0
14 -1 -32 -86 -34 -63 -42 -88 -43 -132 0 -47 4 -57 28 -78 17 -15 41 -24 61
-24 36 0 97 36 128 76 23 29 38 31 38 6 0 -10 14 -31 31 -48 26 -25 38 -29 87
-28 80 0 124 18 177 72 114 115 148 289 71 361 -30 28 -93 44 -118 30 -32 -17
-17 -43 29 -52 31 -6 42 -13 47 -31 20 -80 -126 -316 -197 -316 -74 0 -33 180
90 389 61 105 154 239 215 314 22 26 38 46 36 45 -1 0 -33 -4 -69 -7z m-1133
-408 c17 -17 17 -18 -3 -21 -28 -4 -52 -33 -102 -122 -55 -97 -99 -154 -134
-175 -42 -25 -55 -8 -39 53 24 88 107 202 186 256 45 30 68 33 92 9z"/>
<path d="M2095 1899 c-29 -26 -62 -75 -95 -139 l-50 -99 -43 -3 c-37 -3 -42
-6 -42 -28 0 -20 6 -26 28 -28 15 -2 27 -5 27 -7 0 -2 -16 -50 -36 -107 -64
-186 -155 -310 -194 -263 -9 11 -4 33 23 97 122 296 113 269 93 283 -12 9 -34
12 -65 8 -36 -4 -50 -1 -60 11 -21 26 -69 20 -101 -12 -36 -37 -53 -99 -45
-166 6 -45 3 -61 -19 -104 -52 -103 -126 -159 -126 -95 0 14 16 76 36 136 36
113 48 207 28 227 -8 8 -28 9 -58 5 l-46 -7 0 -57 c0 -36 -8 -72 -22 -101 -11
-25 -22 -65 -24 -90 -1 -25 -6 -73 -9 -106 -6 -55 -5 -64 14 -83 25 -25 88
-28 130 -6 68 35 148 166 208 342 15 46 32 83 36 83 22 0 14 -42 -32 -159 -57
-144 -64 -201 -31 -243 23 -30 69 -42 108 -27 15 6 46 29 70 52 36 35 42 38
42 20 0 -27 44 -70 81 -78 40 -9 106 24 143 72 43 53 106 180 100 198 -12 31
-33 15 -70 -55 -34 -64 -113 -150 -137 -150 -27 0 -31 25 -17 102 11 63 18 76
64 127 28 31 65 77 81 103 26 42 34 47 66 48 39 0 59 15 59 42 0 13 -8 18 -25
18 -14 0 -25 4 -25 9 0 5 14 39 32 77 74 158 13 255 -97 153z m31 -165 c-33
-69 -56 -94 -56 -59 0 16 55 130 74 154 9 12 12 11 14 -3 2 -9 -12 -51 -32
-92z m-76 -138 c0 -3 -4 -8 -10 -11 -5 -3 -10 -1 -10 4 0 6 5 11 10 11 6 0 10
-2 10 -4z"/>
<path d="M1785 1788 c-48 -27 -58 -75 -25 -108 27 -27 56 -25 85 5 27 26 34
76 13 93 -23 17 -52 22 -73 10z"/>
<path d="M6262 1737 c-6 -7 -17 -41 -26 -77 -30 -130 -95 -286 -157 -377 -31
-45 -38 -83 -15 -83 31 0 110 124 161 253 29 72 49 83 90 53 19 -13 18 -16
-17 -72 -85 -139 -89 -238 -12 -270 46 -19 80 -7 129 47 l34 38 13 -27 c20
-41 74 -72 125 -72 60 0 101 19 145 68 43 48 111 176 106 200 -7 35 -34 15
-71 -53 -57 -104 -112 -155 -170 -155 -33 0 -47 18 -47 59 0 65 9 79 50 86 96
16 210 125 210 199 0 44 -35 76 -83 76 -95 0 -180 -77 -258 -235 -57 -115
-111 -187 -128 -170 -15 15 2 70 56 185 81 172 80 185 -13 174 -66 -7 -73 -2
-49 30 20 26 19 86 -1 114 -17 24 -56 29 -72 9z m488 -179 c-1 -31 -49 -94
-93 -122 -26 -16 -50 -27 -53 -23 -10 9 17 49 69 104 48 51 77 66 77 41z"/>
</g>
</svg>
